<?xml version="1.0" encoding="UTF-8"?>
<svg version="1.1" xmlns="http://www.w3.org/2000/svg" width="500" height="500">
<path d="M0 0 C165 0 330 0 500 0 C500 165 500 330 500 500 C335 500 170 500 0 500 C0 335 0 170 0 0 Z " fill="#FEFEFE" transform="translate(0,0)"/>
<path d="M0 0 C0.77923828 0.00451172 1.55847656 0.00902344 2.36132812 0.01367188 C4.26175268 0.02533092 6.16213706 0.04326123 8.0625 0.0625 C8.08582961 15.30013064 8.10347948 30.53776046 8.11431217 45.77540493 C8.119475 52.85003187 8.12651744 59.92464774 8.13793945 66.99926758 C8.14894681 73.82028878 8.15477618 80.64129844 8.15737724 87.46232796 C8.15923205 90.07116948 8.1628537 92.68001033 8.16823006 95.28884697 C8.17543643 98.92882552 8.17649111 102.56875575 8.17602539 106.20874023 C8.17962067 107.29918137 8.18321594 108.3896225 8.18692017 109.5131073 C8.1855455 110.49893799 8.18417084 111.48476868 8.18275452 112.50047302 C8.18367631 113.36234946 8.1845981 114.2242259 8.18554783 115.11221981 C8.0625 117.0625 8.0625 117.0625 7.0625 118.0625 C4.72906429 118.3693711 2.40263256 118.63113355 0.0625 118.875 C-20.71231981 121.28472893 -42.30011113 127.21872841 -59.125 140.125 C-61.9375 142.0625 -61.9375 142.0625 -64.11328125 141.68359375 C-65.01626953 141.37615234 -65.01626953 141.37615234 -65.9375 141.0625 C-66.14796224 125.79845855 -66.30655623 110.5344841 -66.40380955 95.26931667 C-66.45017185 88.18092212 -66.51334906 81.09343026 -66.61645508 74.00561523 C-66.71591703 67.16502912 -66.76806232 60.3253812 -66.79139519 53.48411751 C-66.80802206 50.87450463 -66.84049168 48.26494296 -66.88907051 45.65572929 C-66.95444133 41.99909615 -66.96340089 38.34633266 -66.95922852 34.68920898 C-66.991586 33.61098877 -67.02394348 32.53276855 -67.05728149 31.421875 C-67.00358493 27.07087941 -66.95959161 24.2250954 -64.01501274 20.87573433 C-61.72915222 19.0592643 -59.46219925 17.52520195 -56.9375 16.0625 C-56.18206185 15.62139609 -55.42662371 15.18029219 -54.6482935 14.7258215 C-52.55262225 13.55211716 -50.42738279 12.51378792 -48.25 11.5 C-47.44981445 11.12359375 -46.64962891 10.7471875 -45.82519531 10.359375 C-31.47760398 3.89440882 -15.75851173 -0.17554469 0 0 Z " fill="#FDFDFD" transform="translate(269.9375,178.9375)"/>
<path d="M0 0 C19.90194843 0 19.90194843 0 28.375 2 C29.82108643 2.33004028 29.82108643 2.33004028 31.29638672 2.66674805 C45.71434396 6.16276481 63.25287178 12.25287178 74 23 C74.24609566 25.08894539 74.24609566 25.08894539 74.24050903 27.72024536 C74.24325836 28.71586487 74.24600769 29.71148437 74.24884033 30.73727417 C74.2380545 32.38156906 74.2380545 32.38156906 74.22705078 34.05908203 C74.22734283 35.21029541 74.22763489 36.36150879 74.22793579 37.54760742 C74.22653807 41.36775142 74.21095592 45.18770241 74.1953125 49.0078125 C74.19158395 51.65054213 74.18873623 54.29327314 74.18673706 56.93600464 C74.18051494 63.19043134 74.16409429 69.44478833 74.14403808 75.6991843 C74.12170179 82.8187952 74.11069137 89.93840938 74.10064721 97.05804658 C74.07972866 111.70540039 74.04453851 126.35269922 74 141 C72.18066406 141.6015625 72.18066406 141.6015625 70 142 C67.77588292 140.74968554 65.81258194 139.47758402 63.75 138 C44.70839223 125.14164494 22.62863229 120.05714839 0 118 C0 79.06 0 40.12 0 0 Z " fill="#FDFDFD" transform="translate(126,179)"/>
<path d="M0 0 C3.91288936 0.84409679 6.52891077 3.5432161 9.13671875 6.4609375 C10.76695689 9.72141379 10.60407225 11.83894785 10.13671875 15.4609375 C5.7261579 21.8952281 -0.60223539 27.27520429 -6.15296936 32.70352936 C-8.20426463 34.71215182 -10.24572864 36.73065125 -12.28795624 38.74848557 C-16.07394197 42.48896408 -19.86401977 46.22509095 -23.66992188 49.9453125 C-26.33415938 52.55031411 -28.98615274 55.1672355 -31.63035583 57.79256439 C-32.63702966 58.78748576 -33.64822587 59.77785271 -34.66395569 60.76352692 C-36.07572122 62.13448117 -37.47093006 63.52242372 -38.86523438 64.91113281 C-39.66352661 65.69530579 -40.46181885 66.47947876 -41.28430176 67.28741455 C-43.04710607 69.27939842 -43.04710607 69.27939842 -42.90513611 71.434021 C-41.43528914 74.29359118 -39.48215404 76.18394407 -37.19165039 78.44140625 C-36.70703842 78.92324371 -36.22242645 79.40508118 -35.72312927 79.90151978 C-34.12160904 81.49076709 -32.50995741 83.0693367 -30.8984375 84.6484375 C-29.78284947 85.75334711 -28.66806849 86.85907212 -27.55406189 87.96557617 C-24.6199525 90.87689981 -21.67783538 93.77997749 -18.73309326 96.68054199 C-14.02180081 101.32166863 -9.31793426 105.97021015 -4.62319756 110.62808228 C-2.9823456 112.25224711 -1.33519989 113.86983175 0.31248474 115.48706055 C1.32048446 116.48459708 2.3282341 117.48238639 3.33569336 118.48046875 C4.21648056 119.34776611 5.09726776 120.21506348 6.00474548 121.10864258 C8.77266484 124.16260332 9.98035387 126.2621401 10.51171875 130.3359375 C10.0321342 134.33247546 8.66932442 136.36553058 6.13671875 139.4609375 C3.23331619 141.74218237 -0.09285594 142.07749923 -3.75767517 141.94718933 C-12.19582492 139.9985505 -21.03266757 127.43578563 -27.078125 121.37890625 C-28.34210374 120.11560218 -29.6062308 118.85244649 -30.87049866 117.58943176 C-33.50358961 114.95780689 -36.13488369 112.32440222 -38.76489258 109.68969727 C-42.13981239 106.30904545 -45.51924968 102.93295055 -48.90001583 99.55814648 C-51.50368187 96.95808556 -54.104972 94.35565817 -56.7055378 91.75249672 C-57.95158006 90.50578687 -59.19836699 89.25982081 -60.44590569 88.01460838 C-62.18112604 86.28191751 -63.91312597 84.54607139 -65.64428711 82.80932617 C-66.16111557 82.29452194 -66.67794403 81.77971771 -67.21043396 81.24931335 C-70.41075681 78.02976604 -72.05099021 75.9958075 -72.48828125 71.4609375 C-72.36619819 67.02454367 -71.13180331 65.13707221 -68.11083984 61.94335938 C-67.28992859 61.0705835 -66.46901733 60.19780762 -65.62322998 59.29858398 C-64.25705536 57.89394897 -64.25705536 57.89394897 -62.86328125 56.4609375 C-62.39452827 55.97855621 -61.9257753 55.49617493 -61.44281769 54.99917603 C-57.75360593 51.21409919 -54.01851169 47.47580404 -50.27734375 43.7421875 C-49.08655487 42.55072327 -47.89591432 41.35911077 -46.70541382 40.1673584 C-44.23117097 37.69165346 -41.75515922 35.21773565 -39.27783203 32.74511719 C-36.10359617 29.57662173 -32.93393074 26.40359776 -29.76554298 23.22925568 C-27.31728428 20.77738818 -24.86665494 18.32790133 -22.41529465 15.87913513 C-21.24477138 14.70927799 -20.07498787 13.53868019 -18.9059639 12.36732483 C-17.27907075 10.73789521 -15.6490125 9.11169965 -14.01806641 7.48632812 C-13.09256989 6.5616272 -12.16707336 5.63692627 -11.21353149 4.6842041 C-7.55361687 1.22203407 -5.11442607 -0.09453653 0 0 Z " fill="#565656" transform="translate(82.86328125,178.5390625)"/>
<path d="M0 0 C2.28515625 1.59500122 2.28515625 1.59500122 4.5625 3.76611328 C5.86477539 4.99735931 5.86477539 4.99735931 7.19335938 6.253479 C8.11955078 7.15983093 9.04574219 8.06618286 10 9 C10.47606689 9.46316368 10.95213379 9.92632736 11.44262695 10.40352631 C15.16098011 14.0257052 18.83325913 17.69288311 22.5 21.3671875 C23.66904401 22.53555611 24.83823628 23.70377639 26.00756836 24.87185669 C28.43619476 27.29902131 30.86303464 29.72795386 33.28857422 32.15820312 C36.39653524 35.27190539 39.50902556 38.38103561 42.62283325 41.48888969 C45.0283777 43.89082523 47.43154126 46.29513144 49.83398438 48.70016861 C50.98151286 49.84836314 52.1297818 50.99581814 53.27880859 52.14251328 C54.87710558 53.7382735 56.47216737 55.33719864 58.06640625 56.93701172 C59.4268103 58.29860916 59.4268103 58.29860916 60.81469727 59.68771362 C63.83539331 62.88393637 65.29944859 64.93807326 65.375 69.3125 C65.40335937 70.05113281 65.43171875 70.78976562 65.4609375 71.55078125 C64.33450272 77.53615926 59.34444745 81.94247608 55.16162109 86.08129883 C54.58878891 86.65602936 54.01595673 87.23075989 53.42576599 87.82290649 C51.54649505 89.70585793 49.6601648 91.58155359 47.7734375 93.45703125 C46.46078615 94.76848958 45.14850526 96.08031879 43.83657837 97.39250183 C41.09433216 100.13318811 38.34877118 102.87049389 35.60058594 105.60522461 C32.07351636 109.11524632 28.55312433 112.63187383 25.03494835 116.15080738 C22.32957287 118.85591145 19.62160317 121.55840554 16.9127388 124.26001549 C15.61313504 125.5564328 14.31413982 126.85346045 13.01575851 128.15110207 C11.20620592 129.95849419 9.39340403 131.7625598 7.57958984 133.56567383 C7.041371 134.10434586 6.50315216 134.64301788 5.94862366 135.19801331 C2.07112234 139.04199749 0.12712552 140.19459385 -5.3125 140.4375 C-9.54430152 140.376411 -10.67737052 140.24039059 -14.1875 137.625 C-16.34802852 134.17139754 -16.86943629 130.91280405 -16.77539062 126.87701416 C-15.03611269 120.42358659 -9.10348648 115.91366879 -4.40625 111.4296875 C-3.21580299 110.25791123 -2.02755918 109.08389282 -0.84143066 107.90774536 C2.27370134 104.83064206 5.417678 101.78476066 8.56878662 98.74456787 C11.78400138 95.63198472 14.97079832 92.49059638 18.16015625 89.3515625 C24.41275558 83.20594019 30.69614399 77.0930327 37 71 C35.43343365 67.22481791 33.08404081 64.84843196 30.19897461 61.98779297 C29.71261032 61.50274292 29.22624603 61.01769287 28.72514343 60.51794434 C27.12209741 58.92137112 25.5121981 57.33189289 23.90234375 55.7421875 C22.7860777 54.63219378 21.67032652 53.52168205 20.55506897 52.41067505 C17.62188746 49.49078202 14.68318737 46.57651236 11.74285889 43.66381836 C7.03171427 38.9958368 2.32731448 34.32108135 -2.37389946 29.64310074 C-4.01847715 28.00876275 -5.66641586 26.37787005 -7.31471252 24.74728394 C-8.31937888 23.74944354 -9.32393703 22.75149417 -10.32836914 21.75341797 C-11.20836075 20.88167938 -12.08835236 20.0099408 -12.99501038 19.11178589 C-16.3346532 15.59425617 -16.33070868 12.94901768 -16.29296875 8.26171875 C-15.86344199 4.9457722 -14.39075646 3.25012373 -12 1 C-8.08062535 -0.95968733 -4.23850817 -0.82547641 0 0 Z " fill="#565656" transform="translate(418,188)"/>
<path d="M0 0 C2.87029869 1.79393668 4.49131638 2.98263276 6 6 C6.54321504 13.81076206 5.69482202 21.03622979 3.9375 28.625 C3.47037378 30.75369135 3.00428684 32.88261094 2.5390625 35.01171875 C2.28801758 36.14399902 2.03697266 37.2762793 1.77832031 38.44287109 C0.54612694 44.07431948 -0.60831322 49.72160056 -1.76394653 55.36914062 C-2.1934229 57.46642357 -2.62466816 59.56333579 -3.05639648 61.66015625 C-4.87890948 70.51503503 -6.68962741 79.37230339 -8.49609375 88.23046875 C-8.71297348 89.29387985 -8.92985321 90.35729095 -9.15330505 91.45292664 C-10.22314047 96.69947306 -11.29220738 101.94617454 -12.36010742 107.19311523 C-12.76339798 109.17303696 -13.16679881 111.15293623 -13.5703125 113.1328125 C-13.76799225 114.102827 -13.965672 115.07284149 -14.16934204 116.07225037 C-15.84734394 124.28868668 -17.55801344 132.49820051 -19.28897095 140.7036438 C-20.82201913 148.01133545 -22.21869174 155.33922947 -23.51519775 162.6925354 C-24.40043653 167.60170492 -25.80897511 171.03082348 -29 175 C-33.02702057 177.68468038 -36.2684363 177.68187737 -41 177 C-44.46868763 174.93354779 -46.80891972 172.89808091 -48 169 C-48.42976437 161.9697036 -47.0031008 155.75367567 -45.375 148.9375 C-43.04510993 138.84616364 -40.92723154 128.73835906 -39 118.5625 C-37.17853815 108.97342571 -35.26903027 99.41149501 -33.1875 89.875 C-30.67007334 78.33403692 -28.33337622 66.76202453 -26.03201294 55.17636108 C-24.87562146 49.36270547 -23.70926876 43.55103724 -22.54417419 37.73912048 C-21.74986062 33.77157254 -20.95859418 29.8036621 -20.18994141 25.83105469 C-19.55819669 22.57165641 -18.90742977 19.31679107 -18.25 16.0625 C-18.08814209 15.18940186 -17.92628418 14.31630371 -17.75952148 13.41674805 C-16.63477655 7.99317573 -14.92610035 4.94461969 -11 1 C-7.54260443 -0.72869779 -3.78024432 -0.48966895 0 0 Z " fill="#575757" transform="translate(358,170)"/>
<path d="M0 0 C0.79792969 0.00386719 1.59585938 0.00773438 2.41796875 0.01171875 C3.61486328 0.00591797 3.61486328 0.00591797 4.8359375 0 C10.79136108 0.01011108 10.79136108 0.01011108 11.91796875 1.13671875 C12.01555455 2.52582508 12.04428514 3.91984824 12.04495239 5.31237793 C12.04918213 6.66274391 12.04918213 6.66274391 12.05349731 8.04039001 C12.05046097 9.53343407 12.05046097 9.53343407 12.04736328 11.05664062 C12.04999176 12.6198983 12.04999176 12.6198983 12.05267334 14.21473694 C12.05709413 17.67833088 12.05415306 21.14187424 12.05078125 24.60546875 C12.05145422 27.00061045 12.05242419 29.39575209 12.05368042 31.79089355 C12.0551577 36.81812183 12.05300186 41.84533237 12.04833984 46.87255859 C12.04264255 53.33278566 12.04592139 59.79297118 12.05191231 66.25319672 C12.0555171 71.20123612 12.05437971 76.1492656 12.05178452 81.0973053 C12.05111502 83.48006698 12.05194445 85.86282956 12.05426407 88.24559021 C12.05678926 91.56935024 12.05295188 94.89304196 12.04736328 98.21679688 C12.04938751 99.21215958 12.05141174 100.20752228 12.05349731 101.23304749 C12.05067749 102.13329147 12.04785767 103.03353546 12.04495239 103.96105957 C12.04438685 105.14131084 12.04438685 105.14131084 12.04380989 106.34540558 C11.91796875 108.13671875 11.91796875 108.13671875 10.91796875 109.13671875 C8.1219494 109.18849334 5.34948373 109.17803873 2.5546875 109.12890625 C0.78060523 109.1113342 -0.99348377 109.09443158 -2.76757812 109.078125 C-5.54894132 109.04765888 -8.3299569 109.01282139 -11.11108398 108.96533203 C-23.62907641 108.76293375 -35.47514716 109.60278691 -47.80862427 111.7613678 C-51.635401 112.39318793 -55.48194206 112.85964656 -59.33203125 113.32421875 C-61.28882813 113.56205078 -61.28882813 113.56205078 -63.28515625 113.8046875 C-64.208125 113.91425781 -65.13109375 114.02382813 -66.08203125 114.13671875 C-66.08203125 112.81671875 -66.08203125 111.49671875 -66.08203125 110.13671875 C-49.76820179 100.78610918 -31.10655058 96.07201976 -12.34008789 96.12255859 C-11.35408096 96.12460297 -10.36807404 96.12664734 -9.35218811 96.12875366 C-8.60303635 96.13138214 -7.85388458 96.13401062 -7.08203125 96.13671875 C-7.08425186 94.94877213 -7.08647247 93.7608255 -7.08876038 92.53688049 C-7.10899017 81.36763889 -7.1240026 70.19840098 -7.13384342 59.02914524 C-7.13907266 53.28626813 -7.14617105 47.54340574 -7.1574707 41.80053711 C-7.16829812 36.2633188 -7.17430777 30.72611471 -7.17690849 25.18888664 C-7.17876301 23.07127598 -7.18238411 20.95366613 -7.18776131 18.83606148 C-7.19496981 15.88100601 -7.19602227 12.92601004 -7.19555664 9.97094727 C-7.19915192 9.08622238 -7.20274719 8.2014975 -7.20645142 7.28996277 C-7.19431103 0.21838857 -7.11262018 0.01207576 0 0 Z " fill="#0C0C0C" transform="translate(290.08203125,205.86328125)"/>
<path d="M0 0 C0.79792969 0.00386719 1.59585938 0.00773438 2.41796875 0.01171875 C3.21589844 0.00785156 4.01382813 0.00398437 4.8359375 0 C10.79136108 0.01011108 10.79136108 0.01011108 11.91796875 1.13671875 C12.01323681 4.08918229 12.04349327 7.01820296 12.03149414 9.97094727 C12.03164017 10.8976825 12.03178619 11.82441772 12.03193665 12.77923584 C12.03123713 15.85805562 12.02344296 18.93681572 12.015625 22.015625 C12.01376096 24.14411893 12.01233699 26.27261328 12.01133728 28.40110779 C12.00751103 34.01534195 11.99767983 39.62955043 11.9866333 45.24377441 C11.97642148 50.96785128 11.97184015 56.69193228 11.96679688 62.41601562 C11.95605766 73.65626131 11.93897995 84.8964879 11.91796875 96.13671875 C12.87661331 96.13032883 13.83525787 96.1239389 14.82295227 96.11735535 C16.71137093 96.10990044 16.71137093 96.10990044 18.63793945 96.10229492 C20.5090313 96.09271004 20.5090313 96.09271004 22.41792297 96.08293152 C26.50580507 96.14575237 30.10442116 96.62708568 34.10546875 97.44921875 C34.77634521 97.58674561 35.44722168 97.72427246 36.13842773 97.8659668 C38.06901242 98.27059144 39.99374208 98.70286389 41.91796875 99.13671875 C42.88476562 99.35328125 43.8515625 99.56984375 44.84765625 99.79296875 C50.34373354 101.16291086 55.58994427 103.07117378 60.85546875 105.13671875 C61.49492432 105.38591064 62.13437988 105.63510254 62.79321289 105.8918457 C66.20789517 107.27448613 69.09529031 108.75972638 71.91796875 111.13671875 C71.42296875 112.62171875 71.42296875 112.62171875 70.91796875 114.13671875 C64.01463258 113.58883493 57.30235377 112.56410944 50.51196289 111.2409668 C37.81124593 108.85835636 25.09496761 109.03531893 12.23046875 109.13671875 C8.78906619 109.16324208 5.34771552 109.18320114 1.90625 109.19921875 C1.11785233 109.20751709 0.32945465 109.21581543 -0.48283386 109.22436523 C-2.3494421 109.23290538 -4.21616784 109.19013214 -6.08203125 109.13671875 C-7.63377571 107.58497429 -7.20798 106.12083899 -7.20901489 103.96105957 C-7.21183472 103.06081558 -7.21465454 102.16057159 -7.21755981 101.23304749 C-7.21553558 100.23768478 -7.21351135 99.24232208 -7.21142578 98.21679688 C-7.2131781 97.17462509 -7.21493042 96.13245331 -7.21673584 95.05870056 C-7.22115663 91.59510662 -7.21821556 88.13156326 -7.21484375 84.66796875 C-7.21551672 82.27282705 -7.21648669 79.87768541 -7.21774292 77.48254395 C-7.2192202 72.45531567 -7.21706436 67.42810513 -7.21240234 62.40087891 C-7.20670505 55.94065184 -7.20998389 49.48046632 -7.21597481 43.02024078 C-7.2195796 38.07220138 -7.21844221 33.1241719 -7.21584702 28.1761322 C-7.21517752 25.79337052 -7.21600695 23.41060794 -7.21832657 21.02784729 C-7.22085176 17.70408726 -7.21701438 14.38039554 -7.21142578 11.05664062 C-7.21345001 10.06127792 -7.21547424 9.06591522 -7.21755981 8.04039001 C-7.21473999 7.14014603 -7.21192017 6.23990204 -7.20901489 5.31237793 C-7.20863787 4.52554375 -7.20826084 3.73870956 -7.20787239 2.92803192 C-6.91448248 -1.2482908 -3.39128236 0.0057577 0 0 Z " fill="#0C0C0C" transform="translate(109.08203125,205.86328125)"/>
<path d="M0 0 C0.77923828 0.00451172 1.55847656 0.00902344 2.36132812 0.01367188 C4.26175268 0.02533092 6.16213706 0.04326123 8.0625 0.0625 C8.08582961 15.30013064 8.10347948 30.53776046 8.11431217 45.77540493 C8.119475 52.85003187 8.12651744 59.92464774 8.13793945 66.99926758 C8.14894681 73.82028878 8.15477618 80.64129844 8.15737724 87.46232796 C8.15923205 90.07116948 8.1628537 92.68001033 8.16823006 95.28884697 C8.17543643 98.92882552 8.17649111 102.56875575 8.17602539 106.20874023 C8.17962067 107.29918137 8.18321594 108.3896225 8.18692017 109.5131073 C8.1855455 110.49893799 8.18417084 111.48476868 8.18275452 112.50047302 C8.18367631 113.36234946 8.1845981 114.2242259 8.18554783 115.11221981 C8.0625 117.0625 8.0625 117.0625 7.0625 118.0625 C4.72906429 118.3693711 2.40263256 118.63113355 0.0625 118.875 C-20.71231981 121.28472893 -42.30011113 127.21872841 -59.125 140.125 C-61.9375 142.0625 -61.9375 142.0625 -64.11328125 141.68359375 C-65.01626953 141.37615234 -65.01626953 141.37615234 -65.9375 141.0625 C-66.14796224 125.79845855 -66.30655623 110.5344841 -66.40380955 95.26931667 C-66.45017185 88.18092212 -66.51334906 81.09343026 -66.61645508 74.00561523 C-66.71591703 67.16502912 -66.76806232 60.3253812 -66.79139519 53.48411751 C-66.80802206 50.87450463 -66.84049168 48.26494296 -66.88907051 45.65572929 C-66.95444133 41.99909615 -66.96340089 38.34633266 -66.95922852 34.68920898 C-66.991586 33.61098877 -67.02394348 32.53276855 -67.05728149 31.421875 C-67.00358493 27.07087941 -66.95959161 24.2250954 -64.01501274 20.87573433 C-61.72915222 19.0592643 -59.46219925 17.52520195 -56.9375 16.0625 C-56.18206185 15.62139609 -55.42662371 15.18029219 -54.6482935 14.7258215 C-52.55262225 13.55211716 -50.42738279 12.51378792 -48.25 11.5 C-47.44981445 11.12359375 -46.64962891 10.7471875 -45.82519531 10.359375 C-31.47760398 3.89440882 -15.75851173 -0.17554469 0 0 Z M-54.9375 20.0625 C-55.95758148 20.52774582 -56.97766296 20.99299164 -58.02865601 21.47233582 C-61.2525262 24.34301335 -61.37955519 24.70665257 -61.6590271 28.75750732 C-61.67643507 30.7403257 -61.66043319 32.72360012 -61.61865234 34.70605469 C-61.6195285 35.78928513 -61.62040466 36.87251556 -61.62130737 37.98857117 C-61.61712514 41.57123775 -61.57043885 45.15203526 -61.5234375 48.734375 C-61.51224773 51.2172951 -61.50370652 53.70022843 -61.49771118 56.1831665 C-61.4771386 62.05178369 -61.42984658 67.91971013 -61.36961424 73.78804421 C-61.2959395 81.12551487 -61.26373858 88.46302508 -61.23046875 95.80078125 C-61.16610892 108.88836193 -61.06484792 121.97538847 -60.9375 135.0625 C-60.19383179 134.65443619 -59.45016357 134.24637238 -58.68395996 133.82594299 C-57.21134705 133.01986855 -57.21134705 133.01986855 -55.70898438 132.19750977 C-54.73844116 131.66569595 -53.76789795 131.13388214 -52.76794434 130.58595276 C-43.06171001 125.3616884 -33.0273819 121.05927087 -22.375 118.1875 C-21.68148437 117.99663818 -20.98796875 117.80577637 -20.2734375 117.60913086 C-12.19278635 115.5862183 -4.35988334 115.05336863 4.0625 114.0625 C4.0625 77.7625 4.0625 41.4625 4.0625 4.0625 C-16.9294194 4.0625 -36.66999337 9.80943461 -54.9375 20.0625 Z " fill="#0F0F0F" transform="translate(269.9375,178.9375)"/>
<path d="M0 0 C19.90194843 0 19.90194843 0 28.375 2 C29.82108643 2.33004028 29.82108643 2.33004028 31.29638672 2.66674805 C45.71434396 6.16276481 63.25287178 12.25287178 74 23 C74.24609566 25.08894539 74.24609566 25.08894539 74.24050903 27.72024536 C74.24325836 28.71586487 74.24600769 29.71148437 74.24884033 30.73727417 C74.2380545 32.38156906 74.2380545 32.38156906 74.22705078 34.05908203 C74.22734283 35.21029541 74.22763489 36.36150879 74.22793579 37.54760742 C74.22653807 41.36775142 74.21095592 45.18770241 74.1953125 49.0078125 C74.19158395 51.65054213 74.18873623 54.29327314 74.18673706 56.93600464 C74.18051494 63.19043134 74.16409429 69.44478833 74.14403808 75.6991843 C74.12170179 82.8187952 74.11069137 89.93840938 74.10064721 97.05804658 C74.07972866 111.70540039 74.04453851 126.35269922 74 141 C72.18066406 141.6015625 72.18066406 141.6015625 70 142 C67.77588292 140.74968554 65.81258194 139.47758402 63.75 138 C44.70839223 125.14164494 22.62863229 120.05714839 0 118 C0 79.06 0 40.12 0 0 Z M4 4 C4 40.3 4 76.6 4 114 C9.61 114.66 15.22 115.32 21 116 C36.89110004 119.67727935 50.94427643 124.96691027 64.96484375 133.2421875 C67.55965303 135.08352799 67.55965303 135.08352799 69 135 C69 98.37 69 61.74 69 24 C56.68319535 16.79244232 56.68319535 16.79244232 43.8125 11.1875 C43.03986816 10.90962646 42.26723633 10.63175293 41.47119141 10.34545898 C29.24480633 6.15477695 16.89749773 4 4 4 Z " fill="#0F0F0F" transform="translate(126,179)"/>
<path d="M0 0 C3.3 0 6.6 0 10 0 C10.33 31.35 10.66 62.7 11 95 C17.93 95.66 24.86 96.32 32 97 C48.5648855 99.5648855 48.5648855 99.5648855 51 102 C46.05 101.67 41.1 101.34 36 101 C24.12 101 12.24 101 0 101 C0 67.67 0 34.34 0 0 Z " fill="#F0F0F0" transform="translate(106,210)"/>
<path d="M0 0 C3.3 0 6.6 0 10 0 C10 33.33 10 66.66 10 101 C-5.18 101 -20.36 101 -36 101 C-32.99252872 97.99252872 -29.30646337 98.03552775 -25.25 97.4375 C-24.08017578 97.24897461 -24.08017578 97.24897461 -22.88671875 97.05664062 C-15.56442731 95.93420269 -8.4579543 95.53271102 -1 95 C-0.67 63.65 -0.34 32.3 0 0 Z " fill="#F3F3F3" transform="translate(288,210)"/>
<path d="M0 0 C0 0.33 0 0.66 0 1 C6.27 1.33 12.54 1.66 19 2 C19 2.33 19 2.66 19 3 C7.12 3.33 -4.76 3.66 -17 4 C-14.63699651 1.63699651 -13.4201502 1.48566556 -10.1875 0.875 C-8.90939453 0.62363281 -8.90939453 0.62363281 -7.60546875 0.3671875 C-5.03156189 0.004448 -2.59538412 -0.06523407 0 0 Z " fill="#C3C3C3" transform="translate(269,307)"/>
</svg>
